<mxfile host="app.diagrams.net" modified="2023-11-27T19:10:29.890Z" agent="Mozilla/5.0 (Windows NT 10.0; Win64; x64) AppleWebKit/537.36 (KHTML, like Gecko) Chrome/116.0.0.0 Safari/537.36" etag="sRaTP3K-Yk_GxP7cczTY" version="22.1.4" type="device">
  <diagram name="Page-1" id="rbwjw5H1kv7m2FrbeXJe">
    <mxGraphModel dx="958" dy="532" grid="1" gridSize="10" guides="1" tooltips="1" connect="1" arrows="1" fold="1" page="1" pageScale="1" pageWidth="827" pageHeight="1169" math="0" shadow="0">
      <root>
        <mxCell id="0" />
        <mxCell id="1" parent="0" />
        <mxCell id="aWz4UuDc0o3d9W3sbKXC-1" style="edgeStyle=orthogonalEdgeStyle;rounded=0;orthogonalLoop=1;jettySize=auto;html=1;" edge="1" parent="1" source="aWz4UuDc0o3d9W3sbKXC-2" target="aWz4UuDc0o3d9W3sbKXC-45">
          <mxGeometry relative="1" as="geometry" />
        </mxCell>
        <mxCell id="aWz4UuDc0o3d9W3sbKXC-2" value="Start" style="ellipse;whiteSpace=wrap;html=1;" vertex="1" parent="1">
          <mxGeometry x="894" y="60" width="120" height="80" as="geometry" />
        </mxCell>
        <mxCell id="aWz4UuDc0o3d9W3sbKXC-76" value="" style="edgeStyle=orthogonalEdgeStyle;rounded=0;orthogonalLoop=1;jettySize=auto;html=1;" edge="1" parent="1" source="aWz4UuDc0o3d9W3sbKXC-18" target="aWz4UuDc0o3d9W3sbKXC-75">
          <mxGeometry relative="1" as="geometry" />
        </mxCell>
        <mxCell id="aWz4UuDc0o3d9W3sbKXC-18" value="1. Nhap vao ky tu&lt;br&gt;2. In ra do dai chuoi va noi dung vua nhap&lt;br&gt;3. In ra chuoi dao nguoc&lt;br&gt;4. In ra so luong chu cai trong chuoi&lt;br&gt;5. In ra so luong chu so trong chuoi&lt;br&gt;6. In ra so luong ky tu dac biet trong chuoi&lt;br&gt;7. Thoat" style="rounded=0;whiteSpace=wrap;html=1;" vertex="1" parent="1">
          <mxGeometry x="784" y="500" width="340" height="150" as="geometry" />
        </mxCell>
        <mxCell id="aWz4UuDc0o3d9W3sbKXC-44" style="edgeStyle=orthogonalEdgeStyle;rounded=0;orthogonalLoop=1;jettySize=auto;html=1;entryX=0.5;entryY=0;entryDx=0;entryDy=0;" edge="1" parent="1" source="aWz4UuDc0o3d9W3sbKXC-45" target="aWz4UuDc0o3d9W3sbKXC-47">
          <mxGeometry relative="1" as="geometry" />
        </mxCell>
        <mxCell id="aWz4UuDc0o3d9W3sbKXC-45" value="choice, length ,count" style="rounded=0;whiteSpace=wrap;html=1;" vertex="1" parent="1">
          <mxGeometry x="894" y="180" width="120" height="60" as="geometry" />
        </mxCell>
        <mxCell id="aWz4UuDc0o3d9W3sbKXC-70" value="" style="edgeStyle=orthogonalEdgeStyle;rounded=0;orthogonalLoop=1;jettySize=auto;html=1;" edge="1" parent="1" source="aWz4UuDc0o3d9W3sbKXC-47" target="aWz4UuDc0o3d9W3sbKXC-69">
          <mxGeometry relative="1" as="geometry" />
        </mxCell>
        <mxCell id="aWz4UuDc0o3d9W3sbKXC-47" value="str[100]" style="rounded=0;whiteSpace=wrap;html=1;" vertex="1" parent="1">
          <mxGeometry x="894" y="290" width="120" height="60" as="geometry" />
        </mxCell>
        <mxCell id="aWz4UuDc0o3d9W3sbKXC-71" value="" style="edgeStyle=orthogonalEdgeStyle;rounded=0;orthogonalLoop=1;jettySize=auto;html=1;" edge="1" parent="1" source="aWz4UuDc0o3d9W3sbKXC-69" target="aWz4UuDc0o3d9W3sbKXC-18">
          <mxGeometry relative="1" as="geometry" />
        </mxCell>
        <mxCell id="aWz4UuDc0o3d9W3sbKXC-69" value="do" style="whiteSpace=wrap;html=1;rounded=0;" vertex="1" parent="1">
          <mxGeometry x="894" y="400" width="120" height="60" as="geometry" />
        </mxCell>
        <mxCell id="aWz4UuDc0o3d9W3sbKXC-74" value="True" style="edgeStyle=orthogonalEdgeStyle;rounded=0;orthogonalLoop=1;jettySize=auto;html=1;" edge="1" parent="1" source="aWz4UuDc0o3d9W3sbKXC-72">
          <mxGeometry relative="1" as="geometry">
            <mxPoint x="890" y="440" as="targetPoint" />
            <Array as="points">
              <mxPoint x="740" y="805" />
              <mxPoint x="740" y="440" />
            </Array>
          </mxGeometry>
        </mxCell>
        <mxCell id="aWz4UuDc0o3d9W3sbKXC-72" value="1==1" style="rhombus;whiteSpace=wrap;html=1;rounded=0;" vertex="1" parent="1">
          <mxGeometry x="914" y="765" width="80" height="80" as="geometry" />
        </mxCell>
        <mxCell id="aWz4UuDc0o3d9W3sbKXC-78" value="" style="edgeStyle=orthogonalEdgeStyle;rounded=0;orthogonalLoop=1;jettySize=auto;html=1;" edge="1" parent="1" source="aWz4UuDc0o3d9W3sbKXC-75" target="aWz4UuDc0o3d9W3sbKXC-77">
          <mxGeometry relative="1" as="geometry" />
        </mxCell>
        <mxCell id="aWz4UuDc0o3d9W3sbKXC-75" value="switch(choie)" style="whiteSpace=wrap;html=1;rounded=0;" vertex="1" parent="1">
          <mxGeometry x="1250" y="545" width="120" height="60" as="geometry" />
        </mxCell>
        <mxCell id="aWz4UuDc0o3d9W3sbKXC-80" value="True" style="edgeStyle=orthogonalEdgeStyle;rounded=0;orthogonalLoop=1;jettySize=auto;html=1;" edge="1" parent="1" source="aWz4UuDc0o3d9W3sbKXC-77" target="aWz4UuDc0o3d9W3sbKXC-79">
          <mxGeometry relative="1" as="geometry" />
        </mxCell>
        <mxCell id="aWz4UuDc0o3d9W3sbKXC-84" value="False" style="edgeStyle=orthogonalEdgeStyle;rounded=0;orthogonalLoop=1;jettySize=auto;html=1;" edge="1" parent="1" source="aWz4UuDc0o3d9W3sbKXC-77" target="aWz4UuDc0o3d9W3sbKXC-83">
          <mxGeometry relative="1" as="geometry" />
        </mxCell>
        <mxCell id="aWz4UuDc0o3d9W3sbKXC-77" value="choice=1" style="rhombus;whiteSpace=wrap;html=1;rounded=0;" vertex="1" parent="1">
          <mxGeometry x="1470" y="535" width="80" height="80" as="geometry" />
        </mxCell>
        <mxCell id="aWz4UuDc0o3d9W3sbKXC-82" style="edgeStyle=orthogonalEdgeStyle;rounded=0;orthogonalLoop=1;jettySize=auto;html=1;" edge="1" parent="1" source="aWz4UuDc0o3d9W3sbKXC-79" target="aWz4UuDc0o3d9W3sbKXC-72">
          <mxGeometry relative="1" as="geometry">
            <mxPoint x="1510" y="800" as="targetPoint" />
            <Array as="points">
              <mxPoint x="1510" y="800" />
            </Array>
          </mxGeometry>
        </mxCell>
        <mxCell id="aWz4UuDc0o3d9W3sbKXC-79" value="nhap vao mot&amp;nbsp; chuoi" style="shape=parallelogram;perimeter=parallelogramPerimeter;whiteSpace=wrap;html=1;fixedSize=1;rounded=0;" vertex="1" parent="1">
          <mxGeometry x="1440" y="680" width="140" height="60" as="geometry" />
        </mxCell>
        <mxCell id="aWz4UuDc0o3d9W3sbKXC-86" value="True" style="edgeStyle=orthogonalEdgeStyle;rounded=0;orthogonalLoop=1;jettySize=auto;html=1;" edge="1" parent="1" source="aWz4UuDc0o3d9W3sbKXC-83" target="aWz4UuDc0o3d9W3sbKXC-85">
          <mxGeometry relative="1" as="geometry" />
        </mxCell>
        <mxCell id="aWz4UuDc0o3d9W3sbKXC-93" value="False" style="edgeStyle=orthogonalEdgeStyle;rounded=0;orthogonalLoop=1;jettySize=auto;html=1;" edge="1" parent="1" source="aWz4UuDc0o3d9W3sbKXC-83" target="aWz4UuDc0o3d9W3sbKXC-92">
          <mxGeometry relative="1" as="geometry" />
        </mxCell>
        <mxCell id="aWz4UuDc0o3d9W3sbKXC-83" value="choice=2" style="rhombus;whiteSpace=wrap;html=1;rounded=0;" vertex="1" parent="1">
          <mxGeometry x="1690" y="535" width="80" height="80" as="geometry" />
        </mxCell>
        <mxCell id="aWz4UuDc0o3d9W3sbKXC-88" value="" style="edgeStyle=orthogonalEdgeStyle;rounded=0;orthogonalLoop=1;jettySize=auto;html=1;" edge="1" parent="1" source="aWz4UuDc0o3d9W3sbKXC-85" target="aWz4UuDc0o3d9W3sbKXC-87">
          <mxGeometry relative="1" as="geometry" />
        </mxCell>
        <mxCell id="aWz4UuDc0o3d9W3sbKXC-85" value="in ra chuoi" style="shape=parallelogram;perimeter=parallelogramPerimeter;whiteSpace=wrap;html=1;fixedSize=1;rounded=0;" vertex="1" parent="1">
          <mxGeometry x="1670" y="660" width="120" height="60" as="geometry" />
        </mxCell>
        <mxCell id="aWz4UuDc0o3d9W3sbKXC-90" value="" style="edgeStyle=orthogonalEdgeStyle;rounded=0;orthogonalLoop=1;jettySize=auto;html=1;" edge="1" parent="1" source="aWz4UuDc0o3d9W3sbKXC-87" target="aWz4UuDc0o3d9W3sbKXC-89">
          <mxGeometry relative="1" as="geometry" />
        </mxCell>
        <mxCell id="aWz4UuDc0o3d9W3sbKXC-87" value="length" style="whiteSpace=wrap;html=1;rounded=0;" vertex="1" parent="1">
          <mxGeometry x="1670" y="750" width="120" height="60" as="geometry" />
        </mxCell>
        <mxCell id="aWz4UuDc0o3d9W3sbKXC-91" style="edgeStyle=orthogonalEdgeStyle;rounded=0;orthogonalLoop=1;jettySize=auto;html=1;entryX=0.61;entryY=0.952;entryDx=0;entryDy=0;entryPerimeter=0;" edge="1" parent="1" source="aWz4UuDc0o3d9W3sbKXC-89" target="aWz4UuDc0o3d9W3sbKXC-72">
          <mxGeometry relative="1" as="geometry">
            <mxPoint x="960" y="875" as="targetPoint" />
            <Array as="points">
              <mxPoint x="960" y="880" />
              <mxPoint x="960" y="841" />
            </Array>
          </mxGeometry>
        </mxCell>
        <mxCell id="aWz4UuDc0o3d9W3sbKXC-89" value="length" style="shape=parallelogram;perimeter=parallelogramPerimeter;whiteSpace=wrap;html=1;fixedSize=1;rounded=0;" vertex="1" parent="1">
          <mxGeometry x="1670" y="845" width="120" height="60" as="geometry" />
        </mxCell>
        <mxCell id="aWz4UuDc0o3d9W3sbKXC-95" value="" style="edgeStyle=orthogonalEdgeStyle;rounded=0;orthogonalLoop=1;jettySize=auto;html=1;" edge="1" parent="1" source="aWz4UuDc0o3d9W3sbKXC-92" target="aWz4UuDc0o3d9W3sbKXC-94">
          <mxGeometry relative="1" as="geometry" />
        </mxCell>
        <mxCell id="aWz4UuDc0o3d9W3sbKXC-107" value="False" style="edgeStyle=orthogonalEdgeStyle;rounded=0;orthogonalLoop=1;jettySize=auto;html=1;" edge="1" parent="1" source="aWz4UuDc0o3d9W3sbKXC-92" target="aWz4UuDc0o3d9W3sbKXC-108">
          <mxGeometry relative="1" as="geometry">
            <mxPoint x="2090" y="575" as="targetPoint" />
          </mxGeometry>
        </mxCell>
        <mxCell id="aWz4UuDc0o3d9W3sbKXC-92" value="choice =3" style="rhombus;whiteSpace=wrap;html=1;rounded=0;" vertex="1" parent="1">
          <mxGeometry x="1890" y="535" width="80" height="80" as="geometry" />
        </mxCell>
        <mxCell id="aWz4UuDc0o3d9W3sbKXC-102" value="" style="edgeStyle=orthogonalEdgeStyle;rounded=0;orthogonalLoop=1;jettySize=auto;html=1;" edge="1" parent="1" source="aWz4UuDc0o3d9W3sbKXC-94" target="aWz4UuDc0o3d9W3sbKXC-101">
          <mxGeometry relative="1" as="geometry" />
        </mxCell>
        <mxCell id="aWz4UuDc0o3d9W3sbKXC-94" value="i = length&lt;br&gt;" style="whiteSpace=wrap;html=1;rounded=0;" vertex="1" parent="1">
          <mxGeometry x="1870" y="650" width="120" height="60" as="geometry" />
        </mxCell>
        <mxCell id="aWz4UuDc0o3d9W3sbKXC-99" value="" style="edgeStyle=orthogonalEdgeStyle;rounded=0;orthogonalLoop=1;jettySize=auto;html=1;" edge="1" parent="1" source="aWz4UuDc0o3d9W3sbKXC-96" target="aWz4UuDc0o3d9W3sbKXC-98">
          <mxGeometry relative="1" as="geometry" />
        </mxCell>
        <mxCell id="aWz4UuDc0o3d9W3sbKXC-96" value="str[i]" style="shape=parallelogram;perimeter=parallelogramPerimeter;whiteSpace=wrap;html=1;fixedSize=1;rounded=0;" vertex="1" parent="1">
          <mxGeometry x="1870" y="860" width="120" height="60" as="geometry" />
        </mxCell>
        <mxCell id="aWz4UuDc0o3d9W3sbKXC-100" style="edgeStyle=orthogonalEdgeStyle;rounded=0;orthogonalLoop=1;jettySize=auto;html=1;" edge="1" parent="1" source="aWz4UuDc0o3d9W3sbKXC-98">
          <mxGeometry relative="1" as="geometry">
            <mxPoint x="1930" y="640" as="targetPoint" />
            <Array as="points">
              <mxPoint x="2050" y="1000" />
            </Array>
          </mxGeometry>
        </mxCell>
        <mxCell id="aWz4UuDc0o3d9W3sbKXC-98" value="i--" style="whiteSpace=wrap;html=1;rounded=0;" vertex="1" parent="1">
          <mxGeometry x="1870" y="970" width="120" height="60" as="geometry" />
        </mxCell>
        <mxCell id="aWz4UuDc0o3d9W3sbKXC-103" value="True" style="edgeStyle=orthogonalEdgeStyle;rounded=0;orthogonalLoop=1;jettySize=auto;html=1;" edge="1" parent="1" source="aWz4UuDc0o3d9W3sbKXC-101" target="aWz4UuDc0o3d9W3sbKXC-96">
          <mxGeometry relative="1" as="geometry" />
        </mxCell>
        <mxCell id="aWz4UuDc0o3d9W3sbKXC-104" value="False" style="edgeStyle=orthogonalEdgeStyle;rounded=0;orthogonalLoop=1;jettySize=auto;html=1;entryX=0.324;entryY=0.885;entryDx=0;entryDy=0;entryPerimeter=0;" edge="1" parent="1" source="aWz4UuDc0o3d9W3sbKXC-101" target="aWz4UuDc0o3d9W3sbKXC-72">
          <mxGeometry relative="1" as="geometry">
            <mxPoint x="945.4285249255952" y="960" as="targetPoint" />
            <Array as="points">
              <mxPoint x="1830" y="770" />
              <mxPoint x="1830" y="960" />
              <mxPoint x="940" y="960" />
            </Array>
          </mxGeometry>
        </mxCell>
        <mxCell id="aWz4UuDc0o3d9W3sbKXC-101" value="i&amp;lt;=0" style="rhombus;whiteSpace=wrap;html=1;rounded=0;" vertex="1" parent="1">
          <mxGeometry x="1890" y="730" width="80" height="80" as="geometry" />
        </mxCell>
        <mxCell id="aWz4UuDc0o3d9W3sbKXC-110" value="" style="edgeStyle=orthogonalEdgeStyle;rounded=0;orthogonalLoop=1;jettySize=auto;html=1;" edge="1" parent="1" source="aWz4UuDc0o3d9W3sbKXC-108" target="aWz4UuDc0o3d9W3sbKXC-109">
          <mxGeometry relative="1" as="geometry" />
        </mxCell>
        <mxCell id="aWz4UuDc0o3d9W3sbKXC-128" value="False" style="edgeStyle=orthogonalEdgeStyle;rounded=0;orthogonalLoop=1;jettySize=auto;html=1;entryX=0;entryY=0.5;entryDx=0;entryDy=0;" edge="1" parent="1" source="aWz4UuDc0o3d9W3sbKXC-108" target="aWz4UuDc0o3d9W3sbKXC-129">
          <mxGeometry relative="1" as="geometry">
            <mxPoint x="2650" y="575" as="targetPoint" />
          </mxGeometry>
        </mxCell>
        <mxCell id="aWz4UuDc0o3d9W3sbKXC-108" value="choice=4" style="rhombus;whiteSpace=wrap;html=1;" vertex="1" parent="1">
          <mxGeometry x="2140" y="535" width="80" height="80" as="geometry" />
        </mxCell>
        <mxCell id="aWz4UuDc0o3d9W3sbKXC-112" value="" style="edgeStyle=orthogonalEdgeStyle;rounded=0;orthogonalLoop=1;jettySize=auto;html=1;" edge="1" parent="1" source="aWz4UuDc0o3d9W3sbKXC-109" target="aWz4UuDc0o3d9W3sbKXC-111">
          <mxGeometry relative="1" as="geometry" />
        </mxCell>
        <mxCell id="aWz4UuDc0o3d9W3sbKXC-109" value="count =0" style="whiteSpace=wrap;html=1;" vertex="1" parent="1">
          <mxGeometry x="2120" y="640" width="120" height="50" as="geometry" />
        </mxCell>
        <mxCell id="aWz4UuDc0o3d9W3sbKXC-114" value="" style="edgeStyle=orthogonalEdgeStyle;rounded=0;orthogonalLoop=1;jettySize=auto;html=1;" edge="1" parent="1" source="aWz4UuDc0o3d9W3sbKXC-111" target="aWz4UuDc0o3d9W3sbKXC-113">
          <mxGeometry relative="1" as="geometry" />
        </mxCell>
        <mxCell id="aWz4UuDc0o3d9W3sbKXC-111" value="i = 0" style="whiteSpace=wrap;html=1;" vertex="1" parent="1">
          <mxGeometry x="2120" y="730" width="120" height="60" as="geometry" />
        </mxCell>
        <mxCell id="aWz4UuDc0o3d9W3sbKXC-116" value="True" style="edgeStyle=orthogonalEdgeStyle;rounded=0;orthogonalLoop=1;jettySize=auto;html=1;" edge="1" parent="1" source="aWz4UuDc0o3d9W3sbKXC-113" target="aWz4UuDc0o3d9W3sbKXC-115">
          <mxGeometry relative="1" as="geometry" />
        </mxCell>
        <mxCell id="aWz4UuDc0o3d9W3sbKXC-126" value="False" style="edgeStyle=orthogonalEdgeStyle;rounded=0;orthogonalLoop=1;jettySize=auto;html=1;entryX=0.5;entryY=0;entryDx=0;entryDy=0;" edge="1" parent="1" source="aWz4UuDc0o3d9W3sbKXC-113" target="aWz4UuDc0o3d9W3sbKXC-125">
          <mxGeometry relative="1" as="geometry" />
        </mxCell>
        <mxCell id="aWz4UuDc0o3d9W3sbKXC-113" value="i &amp;lt;= length" style="rhombus;whiteSpace=wrap;html=1;" vertex="1" parent="1">
          <mxGeometry x="2140" y="825" width="80" height="80" as="geometry" />
        </mxCell>
        <mxCell id="aWz4UuDc0o3d9W3sbKXC-119" value="true" style="edgeStyle=orthogonalEdgeStyle;rounded=0;orthogonalLoop=1;jettySize=auto;html=1;" edge="1" parent="1" source="aWz4UuDc0o3d9W3sbKXC-115" target="aWz4UuDc0o3d9W3sbKXC-118">
          <mxGeometry relative="1" as="geometry" />
        </mxCell>
        <mxCell id="aWz4UuDc0o3d9W3sbKXC-122" value="False" style="edgeStyle=orthogonalEdgeStyle;rounded=0;orthogonalLoop=1;jettySize=auto;html=1;" edge="1" parent="1" source="aWz4UuDc0o3d9W3sbKXC-115" target="aWz4UuDc0o3d9W3sbKXC-120">
          <mxGeometry relative="1" as="geometry" />
        </mxCell>
        <mxCell id="aWz4UuDc0o3d9W3sbKXC-115" value="(str[i] &gt;= &#39;a&#39; &amp;&amp; str[i] &lt;= &#39;z&#39;) || (str[i] &gt;= &#39;A&#39; &amp;&amp; str[i] &lt;= &#39;Z&#39;)" style="rhombus;whiteSpace=wrap;html=1;" vertex="1" parent="1">
          <mxGeometry x="2010" y="990" width="340" height="100" as="geometry" />
        </mxCell>
        <mxCell id="aWz4UuDc0o3d9W3sbKXC-121" value="" style="edgeStyle=orthogonalEdgeStyle;rounded=0;orthogonalLoop=1;jettySize=auto;html=1;" edge="1" parent="1" source="aWz4UuDc0o3d9W3sbKXC-118" target="aWz4UuDc0o3d9W3sbKXC-120">
          <mxGeometry relative="1" as="geometry" />
        </mxCell>
        <mxCell id="aWz4UuDc0o3d9W3sbKXC-118" value="count ++" style="whiteSpace=wrap;html=1;" vertex="1" parent="1">
          <mxGeometry x="2120" y="1140" width="120" height="60" as="geometry" />
        </mxCell>
        <mxCell id="aWz4UuDc0o3d9W3sbKXC-123" style="edgeStyle=orthogonalEdgeStyle;rounded=0;orthogonalLoop=1;jettySize=auto;html=1;entryX=1;entryY=0.5;entryDx=0;entryDy=0;" edge="1" parent="1" source="aWz4UuDc0o3d9W3sbKXC-120" target="aWz4UuDc0o3d9W3sbKXC-111">
          <mxGeometry relative="1" as="geometry">
            <mxPoint x="2490" y="760" as="targetPoint" />
            <Array as="points">
              <mxPoint x="2490" y="760" />
            </Array>
          </mxGeometry>
        </mxCell>
        <mxCell id="aWz4UuDc0o3d9W3sbKXC-120" value="i++" style="whiteSpace=wrap;html=1;" vertex="1" parent="1">
          <mxGeometry x="2430" y="1010" width="120" height="60" as="geometry" />
        </mxCell>
        <mxCell id="aWz4UuDc0o3d9W3sbKXC-127" style="edgeStyle=orthogonalEdgeStyle;rounded=0;orthogonalLoop=1;jettySize=auto;html=1;entryX=0.5;entryY=1;entryDx=0;entryDy=0;" edge="1" parent="1" source="aWz4UuDc0o3d9W3sbKXC-125" target="aWz4UuDc0o3d9W3sbKXC-72">
          <mxGeometry relative="1" as="geometry">
            <mxPoint x="950" y="1160" as="targetPoint" />
            <Array as="points">
              <mxPoint x="950" y="1160" />
              <mxPoint x="950" y="845" />
            </Array>
          </mxGeometry>
        </mxCell>
        <mxCell id="aWz4UuDc0o3d9W3sbKXC-125" value="count" style="shape=parallelogram;perimeter=parallelogramPerimeter;whiteSpace=wrap;html=1;fixedSize=1;" vertex="1" parent="1">
          <mxGeometry x="1940" y="1130" width="120" height="60" as="geometry" />
        </mxCell>
        <mxCell id="aWz4UuDc0o3d9W3sbKXC-143" value="True" style="edgeStyle=orthogonalEdgeStyle;rounded=0;orthogonalLoop=1;jettySize=auto;html=1;" edge="1" parent="1" source="aWz4UuDc0o3d9W3sbKXC-129" target="aWz4UuDc0o3d9W3sbKXC-132">
          <mxGeometry relative="1" as="geometry" />
        </mxCell>
        <mxCell id="aWz4UuDc0o3d9W3sbKXC-148" value="False" style="edgeStyle=orthogonalEdgeStyle;rounded=0;orthogonalLoop=1;jettySize=auto;html=1;entryX=0;entryY=0.5;entryDx=0;entryDy=0;" edge="1" parent="1" source="aWz4UuDc0o3d9W3sbKXC-129" target="aWz4UuDc0o3d9W3sbKXC-149">
          <mxGeometry relative="1" as="geometry">
            <mxPoint x="3380" y="575" as="targetPoint" />
          </mxGeometry>
        </mxCell>
        <mxCell id="aWz4UuDc0o3d9W3sbKXC-129" value="Choice =5" style="rhombus;whiteSpace=wrap;html=1;" vertex="1" parent="1">
          <mxGeometry x="2810" y="535" width="80" height="80" as="geometry" />
        </mxCell>
        <mxCell id="aWz4UuDc0o3d9W3sbKXC-131" value="" style="edgeStyle=orthogonalEdgeStyle;rounded=0;orthogonalLoop=1;jettySize=auto;html=1;" edge="1" parent="1" source="aWz4UuDc0o3d9W3sbKXC-132" target="aWz4UuDc0o3d9W3sbKXC-134">
          <mxGeometry relative="1" as="geometry" />
        </mxCell>
        <mxCell id="aWz4UuDc0o3d9W3sbKXC-132" value="count =0" style="whiteSpace=wrap;html=1;" vertex="1" parent="1">
          <mxGeometry x="2790" y="650" width="120" height="50" as="geometry" />
        </mxCell>
        <mxCell id="aWz4UuDc0o3d9W3sbKXC-133" value="" style="edgeStyle=orthogonalEdgeStyle;rounded=0;orthogonalLoop=1;jettySize=auto;html=1;" edge="1" parent="1" source="aWz4UuDc0o3d9W3sbKXC-134" target="aWz4UuDc0o3d9W3sbKXC-136">
          <mxGeometry relative="1" as="geometry" />
        </mxCell>
        <mxCell id="aWz4UuDc0o3d9W3sbKXC-134" value="i = 0" style="whiteSpace=wrap;html=1;" vertex="1" parent="1">
          <mxGeometry x="2790" y="745" width="120" height="60" as="geometry" />
        </mxCell>
        <mxCell id="aWz4UuDc0o3d9W3sbKXC-135" value="True" style="edgeStyle=orthogonalEdgeStyle;rounded=0;orthogonalLoop=1;jettySize=auto;html=1;entryX=0.5;entryY=0;entryDx=0;entryDy=0;" edge="1" parent="1" source="aWz4UuDc0o3d9W3sbKXC-136" target="aWz4UuDc0o3d9W3sbKXC-144">
          <mxGeometry relative="1" as="geometry">
            <mxPoint x="2850" y="1005" as="targetPoint" />
          </mxGeometry>
        </mxCell>
        <mxCell id="aWz4UuDc0o3d9W3sbKXC-145" value="Flase" style="edgeStyle=orthogonalEdgeStyle;rounded=0;orthogonalLoop=1;jettySize=auto;html=1;entryX=0.5;entryY=0;entryDx=0;entryDy=0;" edge="1" parent="1" source="aWz4UuDc0o3d9W3sbKXC-136" target="aWz4UuDc0o3d9W3sbKXC-146">
          <mxGeometry relative="1" as="geometry">
            <mxPoint x="2680" y="1150" as="targetPoint" />
          </mxGeometry>
        </mxCell>
        <mxCell id="aWz4UuDc0o3d9W3sbKXC-136" value="i &amp;lt;= length" style="rhombus;whiteSpace=wrap;html=1;" vertex="1" parent="1">
          <mxGeometry x="2810" y="840" width="80" height="80" as="geometry" />
        </mxCell>
        <mxCell id="aWz4UuDc0o3d9W3sbKXC-137" value="true" style="edgeStyle=orthogonalEdgeStyle;rounded=0;orthogonalLoop=1;jettySize=auto;html=1;exitX=0.5;exitY=1;exitDx=0;exitDy=0;" edge="1" parent="1" target="aWz4UuDc0o3d9W3sbKXC-140" source="aWz4UuDc0o3d9W3sbKXC-144">
          <mxGeometry relative="1" as="geometry">
            <mxPoint x="2850" y="1105" as="sourcePoint" />
          </mxGeometry>
        </mxCell>
        <mxCell id="aWz4UuDc0o3d9W3sbKXC-138" value="False" style="edgeStyle=orthogonalEdgeStyle;rounded=0;orthogonalLoop=1;jettySize=auto;html=1;exitX=1;exitY=0.5;exitDx=0;exitDy=0;" edge="1" parent="1" target="aWz4UuDc0o3d9W3sbKXC-142" source="aWz4UuDc0o3d9W3sbKXC-144">
          <mxGeometry relative="1" as="geometry">
            <mxPoint x="3020" y="1055" as="sourcePoint" />
          </mxGeometry>
        </mxCell>
        <mxCell id="aWz4UuDc0o3d9W3sbKXC-139" value="" style="edgeStyle=orthogonalEdgeStyle;rounded=0;orthogonalLoop=1;jettySize=auto;html=1;" edge="1" parent="1" source="aWz4UuDc0o3d9W3sbKXC-140" target="aWz4UuDc0o3d9W3sbKXC-142">
          <mxGeometry relative="1" as="geometry" />
        </mxCell>
        <mxCell id="aWz4UuDc0o3d9W3sbKXC-140" value="count ++" style="whiteSpace=wrap;html=1;" vertex="1" parent="1">
          <mxGeometry x="2790" y="1155" width="120" height="60" as="geometry" />
        </mxCell>
        <mxCell id="aWz4UuDc0o3d9W3sbKXC-141" style="edgeStyle=orthogonalEdgeStyle;rounded=0;orthogonalLoop=1;jettySize=auto;html=1;entryX=1;entryY=0.5;entryDx=0;entryDy=0;" edge="1" parent="1" source="aWz4UuDc0o3d9W3sbKXC-142" target="aWz4UuDc0o3d9W3sbKXC-134">
          <mxGeometry relative="1" as="geometry">
            <mxPoint x="3160" y="775" as="targetPoint" />
            <Array as="points">
              <mxPoint x="3090" y="775" />
            </Array>
          </mxGeometry>
        </mxCell>
        <mxCell id="aWz4UuDc0o3d9W3sbKXC-142" value="i++" style="whiteSpace=wrap;html=1;" vertex="1" parent="1">
          <mxGeometry x="3030" y="1020" width="120" height="60" as="geometry" />
        </mxCell>
        <mxCell id="aWz4UuDc0o3d9W3sbKXC-144" value="str[i] &gt;= &#39;0&#39; &amp;&amp; str[i] &lt;= &#39;9&#39;" style="rhombus;whiteSpace=wrap;html=1;" vertex="1" parent="1">
          <mxGeometry x="2755" y="1010" width="190" height="80" as="geometry" />
        </mxCell>
        <mxCell id="aWz4UuDc0o3d9W3sbKXC-147" style="edgeStyle=orthogonalEdgeStyle;rounded=0;orthogonalLoop=1;jettySize=auto;html=1;entryX=0;entryY=1;entryDx=0;entryDy=0;" edge="1" parent="1" source="aWz4UuDc0o3d9W3sbKXC-146" target="aWz4UuDc0o3d9W3sbKXC-72">
          <mxGeometry relative="1" as="geometry">
            <mxPoint x="930" y="1200" as="targetPoint" />
            <Array as="points">
              <mxPoint x="930" y="1200" />
              <mxPoint x="930" y="825" />
            </Array>
          </mxGeometry>
        </mxCell>
        <mxCell id="aWz4UuDc0o3d9W3sbKXC-146" value="count&amp;nbsp;" style="shape=parallelogram;perimeter=parallelogramPerimeter;whiteSpace=wrap;html=1;fixedSize=1;" vertex="1" parent="1">
          <mxGeometry x="2620" y="1170" width="120" height="60" as="geometry" />
        </mxCell>
        <mxCell id="aWz4UuDc0o3d9W3sbKXC-169" value="Falsr" style="edgeStyle=orthogonalEdgeStyle;rounded=0;orthogonalLoop=1;jettySize=auto;html=1;entryX=0;entryY=0.5;entryDx=0;entryDy=0;" edge="1" parent="1" source="aWz4UuDc0o3d9W3sbKXC-149" target="aWz4UuDc0o3d9W3sbKXC-170">
          <mxGeometry relative="1" as="geometry">
            <mxPoint x="3850" y="575" as="targetPoint" />
          </mxGeometry>
        </mxCell>
        <mxCell id="aWz4UuDc0o3d9W3sbKXC-149" value="choice = 6" style="rhombus;whiteSpace=wrap;html=1;" vertex="1" parent="1">
          <mxGeometry x="3400" y="535" width="80" height="80" as="geometry" />
        </mxCell>
        <mxCell id="aWz4UuDc0o3d9W3sbKXC-150" value="True" style="edgeStyle=orthogonalEdgeStyle;rounded=0;orthogonalLoop=1;jettySize=auto;html=1;exitX=0.5;exitY=1;exitDx=0;exitDy=0;" edge="1" parent="1" target="aWz4UuDc0o3d9W3sbKXC-152" source="aWz4UuDc0o3d9W3sbKXC-149">
          <mxGeometry relative="1" as="geometry">
            <mxPoint x="3440" y="630" as="sourcePoint" />
          </mxGeometry>
        </mxCell>
        <mxCell id="aWz4UuDc0o3d9W3sbKXC-151" value="" style="edgeStyle=orthogonalEdgeStyle;rounded=0;orthogonalLoop=1;jettySize=auto;html=1;" edge="1" parent="1" source="aWz4UuDc0o3d9W3sbKXC-152" target="aWz4UuDc0o3d9W3sbKXC-154">
          <mxGeometry relative="1" as="geometry" />
        </mxCell>
        <mxCell id="aWz4UuDc0o3d9W3sbKXC-152" value="count =0" style="whiteSpace=wrap;html=1;" vertex="1" parent="1">
          <mxGeometry x="3380" y="665" width="120" height="50" as="geometry" />
        </mxCell>
        <mxCell id="aWz4UuDc0o3d9W3sbKXC-153" value="" style="edgeStyle=orthogonalEdgeStyle;rounded=0;orthogonalLoop=1;jettySize=auto;html=1;" edge="1" parent="1" source="aWz4UuDc0o3d9W3sbKXC-154" target="aWz4UuDc0o3d9W3sbKXC-157">
          <mxGeometry relative="1" as="geometry" />
        </mxCell>
        <mxCell id="aWz4UuDc0o3d9W3sbKXC-154" value="i = 0" style="whiteSpace=wrap;html=1;" vertex="1" parent="1">
          <mxGeometry x="3380" y="760" width="120" height="60" as="geometry" />
        </mxCell>
        <mxCell id="aWz4UuDc0o3d9W3sbKXC-155" value="True" style="edgeStyle=orthogonalEdgeStyle;rounded=0;orthogonalLoop=1;jettySize=auto;html=1;entryX=0.5;entryY=0;entryDx=0;entryDy=0;" edge="1" parent="1" source="aWz4UuDc0o3d9W3sbKXC-157" target="aWz4UuDc0o3d9W3sbKXC-164">
          <mxGeometry relative="1" as="geometry">
            <mxPoint x="3440" y="1020" as="targetPoint" />
          </mxGeometry>
        </mxCell>
        <mxCell id="aWz4UuDc0o3d9W3sbKXC-156" value="Flase" style="edgeStyle=orthogonalEdgeStyle;rounded=0;orthogonalLoop=1;jettySize=auto;html=1;entryX=0.5;entryY=0;entryDx=0;entryDy=0;" edge="1" parent="1" source="aWz4UuDc0o3d9W3sbKXC-157" target="aWz4UuDc0o3d9W3sbKXC-165">
          <mxGeometry relative="1" as="geometry">
            <mxPoint x="3270" y="1165" as="targetPoint" />
          </mxGeometry>
        </mxCell>
        <mxCell id="aWz4UuDc0o3d9W3sbKXC-157" value="i &amp;lt;= length" style="rhombus;whiteSpace=wrap;html=1;" vertex="1" parent="1">
          <mxGeometry x="3400" y="855" width="80" height="80" as="geometry" />
        </mxCell>
        <mxCell id="aWz4UuDc0o3d9W3sbKXC-158" value="true" style="edgeStyle=orthogonalEdgeStyle;rounded=0;orthogonalLoop=1;jettySize=auto;html=1;exitX=0.5;exitY=1;exitDx=0;exitDy=0;" edge="1" parent="1" source="aWz4UuDc0o3d9W3sbKXC-164" target="aWz4UuDc0o3d9W3sbKXC-161">
          <mxGeometry relative="1" as="geometry">
            <mxPoint x="3440" y="1120" as="sourcePoint" />
          </mxGeometry>
        </mxCell>
        <mxCell id="aWz4UuDc0o3d9W3sbKXC-159" value="False" style="edgeStyle=orthogonalEdgeStyle;rounded=0;orthogonalLoop=1;jettySize=auto;html=1;exitX=1;exitY=0.5;exitDx=0;exitDy=0;" edge="1" parent="1" source="aWz4UuDc0o3d9W3sbKXC-164" target="aWz4UuDc0o3d9W3sbKXC-163">
          <mxGeometry relative="1" as="geometry">
            <mxPoint x="3610" y="1070" as="sourcePoint" />
          </mxGeometry>
        </mxCell>
        <mxCell id="aWz4UuDc0o3d9W3sbKXC-160" value="" style="edgeStyle=orthogonalEdgeStyle;rounded=0;orthogonalLoop=1;jettySize=auto;html=1;" edge="1" parent="1" source="aWz4UuDc0o3d9W3sbKXC-161" target="aWz4UuDc0o3d9W3sbKXC-163">
          <mxGeometry relative="1" as="geometry" />
        </mxCell>
        <mxCell id="aWz4UuDc0o3d9W3sbKXC-161" value="count ++" style="whiteSpace=wrap;html=1;" vertex="1" parent="1">
          <mxGeometry x="3380" y="1170" width="120" height="60" as="geometry" />
        </mxCell>
        <mxCell id="aWz4UuDc0o3d9W3sbKXC-162" style="edgeStyle=orthogonalEdgeStyle;rounded=0;orthogonalLoop=1;jettySize=auto;html=1;entryX=1;entryY=0.5;entryDx=0;entryDy=0;" edge="1" parent="1" source="aWz4UuDc0o3d9W3sbKXC-163" target="aWz4UuDc0o3d9W3sbKXC-154">
          <mxGeometry relative="1" as="geometry">
            <mxPoint x="3750" y="790" as="targetPoint" />
            <Array as="points">
              <mxPoint x="3730" y="790" />
            </Array>
          </mxGeometry>
        </mxCell>
        <mxCell id="aWz4UuDc0o3d9W3sbKXC-163" value="i++" style="whiteSpace=wrap;html=1;" vertex="1" parent="1">
          <mxGeometry x="3680" y="1035" width="120" height="60" as="geometry" />
        </mxCell>
        <mxCell id="aWz4UuDc0o3d9W3sbKXC-164" value="!((str[i] &amp;gt;= &#39;a&#39; &amp;amp;&amp;amp; str[i] &amp;lt;= &#39;z&#39;) || (str[i] &amp;gt;= &#39;A&#39; &amp;amp;&amp;amp; str[i] &amp;lt;= &#39;Z&#39;) || (str[i] &amp;gt;= &#39;0&#39; &amp;amp;&amp;amp; str[i] &amp;lt;= &#39;9&#39;))" style="rhombus;whiteSpace=wrap;html=1;" vertex="1" parent="1">
          <mxGeometry x="3277.5" y="1025" width="325" height="80" as="geometry" />
        </mxCell>
        <mxCell id="aWz4UuDc0o3d9W3sbKXC-166" style="edgeStyle=orthogonalEdgeStyle;rounded=0;orthogonalLoop=1;jettySize=auto;html=1;entryX=1;entryY=1;entryDx=0;entryDy=0;" edge="1" parent="1" source="aWz4UuDc0o3d9W3sbKXC-165" target="aWz4UuDc0o3d9W3sbKXC-72">
          <mxGeometry relative="1" as="geometry" />
        </mxCell>
        <mxCell id="aWz4UuDc0o3d9W3sbKXC-165" value="count&amp;nbsp;" style="shape=parallelogram;perimeter=parallelogramPerimeter;whiteSpace=wrap;html=1;fixedSize=1;" vertex="1" parent="1">
          <mxGeometry x="3200" y="1240" width="120" height="55" as="geometry" />
        </mxCell>
        <mxCell id="aWz4UuDc0o3d9W3sbKXC-172" value="True" style="edgeStyle=orthogonalEdgeStyle;rounded=0;orthogonalLoop=1;jettySize=auto;html=1;entryX=0.5;entryY=0;entryDx=0;entryDy=0;" edge="1" parent="1" source="aWz4UuDc0o3d9W3sbKXC-170" target="aWz4UuDc0o3d9W3sbKXC-171">
          <mxGeometry relative="1" as="geometry" />
        </mxCell>
        <mxCell id="aWz4UuDc0o3d9W3sbKXC-170" value="choice = 7&amp;nbsp;" style="rhombus;whiteSpace=wrap;html=1;" vertex="1" parent="1">
          <mxGeometry x="3850" y="535" width="80" height="80" as="geometry" />
        </mxCell>
        <mxCell id="aWz4UuDc0o3d9W3sbKXC-171" value="End" style="ellipse;whiteSpace=wrap;html=1;" vertex="1" parent="1">
          <mxGeometry x="3830" y="670" width="120" height="80" as="geometry" />
        </mxCell>
      </root>
    </mxGraphModel>
  </diagram>
</mxfile>
